<?xml version="1.0" encoding="UTF-8"?>
<!DOCTYPE svg PUBLIC "-//W3C//DTD SVG 1.1//EN" "http://www.w3.org/Graphics/SVG/1.1/DTD/svg11.dtd">
<svg xmlns="http://www.w3.org/2000/svg" version="1.1" width="212px" height="238px" style="shape-rendering:geometricPrecision; text-rendering:geometricPrecision; image-rendering:optimizeQuality; fill-rule:evenodd; clip-rule:evenodd" xmlns:xlink="http://www.w3.org/1999/xlink">
<g><path style="opacity:1" fill="#fefffe" d="M 99.5,-0.5 C 103.5,-0.5 107.5,-0.5 111.5,-0.5C 140.608,16.5591 169.941,33.3925 199.5,50C 204.821,53.478 208.821,57.978 211.5,63.5C 211.5,100.167 211.5,136.833 211.5,173.5C 209.486,179.65 205.486,184.15 199.5,187C 169.941,203.608 140.608,220.441 111.5,237.5C 107.5,237.5 103.5,237.5 99.5,237.5C 67.3188,219.49 35.4855,200.824 4,181.5C 2.20496,178.901 0.704964,176.234 -0.5,173.5C -0.5,136.833 -0.5,100.167 -0.5,63.5C 1.15508,59.654 3.48842,56.154 6.5,53C 37.5627,35.1397 68.5627,17.3064 99.5,-0.5 Z M 97.5,48.5 C 127.313,46.7396 150.313,58.2396 166.5,83C 156.336,88.581 146.336,94.4143 136.5,100.5C 126.885,86.1252 113.552,80.6252 96.5,84C 76.2895,91.5825 67.7895,106.082 71,127.5C 78.5921,147.715 93.0921,156.215 114.5,153C 123.7,149.963 131.034,144.463 136.5,136.5C 146.336,142.586 156.336,148.419 166.5,154C 147.31,182.916 120.644,193.583 86.5,186C 49.1228,172.78 32.2895,146.28 36,106.5C 43.7677,73.5632 64.2677,54.2299 97.5,48.5 Z M 151.5,98.5 C 153.167,98.5 154.833,98.5 156.5,98.5C 156.777,101.448 156.444,104.281 155.5,107C 158.146,107.497 160.813,107.664 163.5,107.5C 163.274,104.751 163.607,102.084 164.5,99.5C 166.045,98.5481 167.712,98.2148 169.5,98.5C 168.841,101.455 168.508,104.455 168.5,107.5C 170.167,107.5 171.833,107.5 173.5,107.5C 173.5,109.167 173.5,110.833 173.5,112.5C 171.533,112.261 169.699,112.594 168,113.5C 167.503,116.146 167.336,118.813 167.5,121.5C 169.199,121.34 170.866,121.506 172.5,122C 171.167,123.333 171.167,124.667 172.5,126C 170.527,126.495 168.527,126.662 166.5,126.5C 165.949,129.807 165.616,133.14 165.5,136.5C 163.833,136.5 162.167,136.5 160.5,136.5C 160.26,133.421 160.593,130.421 161.5,127.5C 158.914,126.52 156.247,126.187 153.5,126.5C 153.665,129.518 153.498,132.518 153,135.5C 151.301,136.406 149.467,136.739 147.5,136.5C 148.207,133.214 148.54,129.881 148.5,126.5C 146.833,126.5 145.167,126.5 143.5,126.5C 143.5,124.833 143.5,123.167 143.5,121.5C 145.5,121.5 147.5,121.5 149.5,121.5C 149.232,118.881 149.565,116.381 150.5,114C 149.095,112.731 147.429,112.231 145.5,112.5C 145.5,110.833 145.5,109.167 145.5,107.5C 147.167,107.5 148.833,107.5 150.5,107.5C 151.159,104.545 151.492,101.545 151.5,98.5 Z"/></g>
<g><path style="opacity:1" fill="#fefffe" d="M 155.5,112.5 C 157.833,112.5 160.167,112.5 162.5,112.5C 162.492,115.545 162.159,118.545 161.5,121.5C 159.167,121.5 156.833,121.5 154.5,121.5C 154.704,118.482 155.037,115.482 155.5,112.5 Z"/></g>
</svg>
