<?xml version="1.0" encoding="UTF-8"?>
<!DOCTYPE svg PUBLIC "-//W3C//DTD SVG 1.1//EN" "http://www.w3.org/Graphics/SVG/1.1/DTD/svg11.dtd">
<svg xmlns="http://www.w3.org/2000/svg" version="1.1" width="512px" height="512px" style="shape-rendering:geometricPrecision; text-rendering:geometricPrecision; image-rendering:optimizeQuality; fill-rule:evenodd; clip-rule:evenodd" xmlns:xlink="http://www.w3.org/1999/xlink">
<g><path style="opacity:0.956" fill="#fefefe" d="M 122.5,127.5 C 175.154,123.408 214.988,143.741 242,188.5C 248.742,201.392 253.075,215.059 255,229.5C 255.5,245.497 255.667,261.497 255.5,277.5C 184.5,277.5 113.5,277.5 42.5,277.5C 41.3953,317.127 57.0619,347.961 89.5,370C 129.215,390.135 166.549,386.469 201.5,359C 211.599,349.236 219.766,338.07 226,325.5C 227.938,322.894 230.438,321.061 233.5,320C 239.528,319.17 245.528,319.336 251.5,320.5C 232.713,373.745 195.046,402.079 138.5,405.5C 94.3262,403.674 60.8262,384.008 38,346.5C 28.5144,329.71 22.8478,311.71 21,292.5C 20.3333,273.167 20.3333,253.833 21,234.5C 30.1626,175.176 63.9959,139.51 122.5,127.5 Z M 127.5,149.5 C 167.217,147.442 198.05,162.775 220,195.5C 230.685,214.088 235.185,234.088 233.5,255.5C 169.833,255.5 106.167,255.5 42.5,255.5C 41.8335,222.642 53.1668,194.809 76.5,172C 91.3876,159.553 108.388,152.053 127.5,149.5 Z"/></g>
<g><path style="opacity:0.946" fill="#fdfdfd" d="M 256.5,137.5 C 271.601,134.802 284.101,139.135 294,150.5C 317.956,182.951 342.456,214.951 367.5,246.5C 392.544,214.951 417.044,182.951 441,150.5C 450.91,138.806 463.41,134.806 478.5,138.5C 446.359,181.142 414.025,223.642 381.5,266C 415.5,310.667 449.5,355.333 483.5,400C 468.637,403.333 456.137,399.5 446,388.5C 420.307,353.769 394.14,319.435 367.5,285.5C 340.86,319.435 314.693,353.769 289,388.5C 278.922,399.745 266.422,403.578 251.5,400C 285.5,355.333 319.5,310.667 353.5,266C 320.542,223.555 288.208,180.721 256.5,137.5 Z"/></g>
</svg>
