<?xml version="1.0" encoding="UTF-8"?>
<!DOCTYPE svg PUBLIC "-//W3C//DTD SVG 1.1//EN" "http://www.w3.org/Graphics/SVG/1.1/DTD/svg11.dtd">
<svg xmlns="http://www.w3.org/2000/svg" version="1.1" width="225px" height="225px" style="shape-rendering:geometricPrecision; text-rendering:geometricPrecision; image-rendering:optimizeQuality; fill-rule:evenodd; clip-rule:evenodd" xmlns:xlink="http://www.w3.org/1999/xlink">
<g><path style="opacity:1" fill="#fefffe" d="M 98.5,-0.5 C 107.5,-0.5 116.5,-0.5 125.5,-0.5C 180.833,10.1667 213.833,43.1667 224.5,98.5C 224.5,107.5 224.5,116.5 224.5,125.5C 213.833,180.833 180.833,213.833 125.5,224.5C 116.5,224.5 107.5,224.5 98.5,224.5C 43.1667,213.833 10.1667,180.833 -0.5,125.5C -0.5,116.5 -0.5,107.5 -0.5,98.5C 10.1667,43.1667 43.1667,10.1667 98.5,-0.5 Z M 74.5,72.5 C 93.8362,72.3334 113.17,72.5 132.5,73C 138.735,81.7406 142.568,91.2406 144,101.5C 151.456,91.7088 159.289,82.2088 167.5,73C 171.211,72.1747 174.878,72.3414 178.5,73.5C 178.931,74.2935 179.265,75.1268 179.5,76C 170.167,88 160.833,100 151.5,112C 156.47,122.106 161.303,132.273 166,142.5C 166.769,145.099 166.602,147.599 165.5,150C 161.577,150.793 157.744,150.626 154,149.5C 150.307,140.913 146.14,132.579 141.5,124.5C 134.152,132.684 127.152,141.184 120.5,150C 116.245,150.796 112.079,150.629 108,149.5C 106.436,147.63 106.436,145.63 108,143.5C 117.18,132.322 126.347,121.155 135.5,110C 132.331,101.829 128.498,93.9954 124,86.5C 120.057,82.1095 115.224,79.1095 109.5,77.5C 107.812,79.0294 106.479,80.8627 105.5,83C 104.167,83.6667 102.833,84.3333 101.5,85C 92.3583,84.9534 83.3583,85.9534 74.5,88C 68.9389,90.5617 65.1055,94.7284 63,100.5C 60.9236,108.049 59.4236,115.715 58.5,123.5C 58.4616,131.295 62.1283,136.129 69.5,138C 75.1569,138.499 80.8236,138.666 86.5,138.5C 87.6863,132.9 88.3529,127.233 88.5,121.5C 81.0067,120.693 77.6733,116.693 78.5,109.5C 86.7845,108.364 95.1178,108.197 103.5,109C 104.126,109.75 104.626,110.584 105,111.5C 104.327,120.88 102.993,130.213 101,139.5C 100.579,143.645 99.4124,147.478 97.5,151C 51.4092,159.918 35.2426,142.084 49,97.5C 53.469,84.8625 61.969,76.5291 74.5,72.5 Z"/></g>
</svg>
