<?xml version="1.0" encoding="UTF-8"?>
<!DOCTYPE svg PUBLIC "-//W3C//DTD SVG 1.1//EN" "http://www.w3.org/Graphics/SVG/1.1/DTD/svg11.dtd">
<svg xmlns="http://www.w3.org/2000/svg" version="1.1" width="200px" height="200px" style="shape-rendering:geometricPrecision; text-rendering:geometricPrecision; image-rendering:optimizeQuality; fill-rule:evenodd; clip-rule:evenodd" xmlns:xlink="http://www.w3.org/1999/xlink">
<g><path style="opacity:1" fill="#fefffe" d="M 89.5,3.5 C 135.271,1.79402 168.104,21.4607 188,62.5C 202.404,103.202 194.571,138.868 164.5,169.5C 133.369,195.64 98.7018,201.474 60.5,187C 16.4565,164.633 -2.04348,128.8 5,79.5C 13.4286,45.4086 33.9286,21.9086 66.5,9C 74.1348,6.44484 81.8015,4.6115 89.5,3.5 Z M 71.5,51.5 C 81.9257,51.0708 91.9257,52.9041 101.5,57C 96.237,56.4051 90.9037,55.9051 85.5,55.5C 80.9643,55.2998 76.631,56.1331 72.5,58C 68.4016,61.6487 68.7349,64.982 73.5,68C 75.7885,68.8221 78.1218,69.4888 80.5,70C 88.1971,70.4781 95.8638,70.4781 103.5,70C 91.1071,75.1408 78.6071,75.6408 66,71.5C 59.0788,66.9558 58.2455,61.6225 63.5,55.5C 66.1479,53.9618 68.8146,52.6285 71.5,51.5 Z M 134.5,56.5 C 137.448,56.2229 140.281,56.5562 143,57.5C 143.436,59.9362 142.603,61.9362 140.5,63.5C 133.581,65.9925 126.581,66.1592 119.5,64C 125.914,63.871 132.247,63.2043 138.5,62C 139.816,60.0224 139.316,58.5224 137,57.5C 134.936,58.5914 132.769,58.7581 130.5,58C 132.058,57.79 133.391,57.29 134.5,56.5 Z M 102.5,81.5 C 105.874,81.6744 109.207,82.1744 112.5,83C 114.64,83.9733 116.307,85.4733 117.5,87.5C 118.95,86.1502 119.617,84.4835 119.5,82.5C 127.507,82.3336 135.507,82.5003 143.5,83C 148.693,84.91 150.193,88.41 148,93.5C 146.378,95.906 144.211,97.7394 141.5,99C 149.71,106.134 148.71,112.134 138.5,117C 116.673,118.774 95.0063,118.94 73.5,117.5C 72.622,112.531 70.9554,107.865 68.5,103.5C 66.4759,105.358 64.3092,107.025 62,108.5C 61.0068,111.308 60.1734,114.141 59.5,117C 57.37,118.261 55.2033,118.761 53,118.5C 51.7949,117.929 50.6283,117.262 49.5,116.5C 52.0897,105.218 54.4231,93.8847 56.5,82.5C 59.8333,82.5 63.1667,82.5 66.5,82.5C 66.0929,86.203 65.4263,89.8697 64.5,93.5C 64.8333,94.1667 65.1667,94.8333 65.5,95.5C 70.355,91.5679 75.0217,87.4012 79.5,83C 83.8333,82.3333 88.1667,82.3333 92.5,83C 87.5,87.3333 82.5,91.6667 77.5,96C 79.8813,101.647 82.548,107.147 85.5,112.5C 91.224,106.136 97.8907,100.969 105.5,97C 109.618,92.7454 109.118,89.5787 104,87.5C 100.914,88.2527 98.7477,90.086 97.5,93C 94.8806,92.9167 92.214,92.75 89.5,92.5C 89.6423,89.383 90.9756,86.883 93.5,85C 96.4588,83.3957 99.4588,82.2291 102.5,81.5 Z M 55.5,129.5 C 59.6829,128.189 64.0162,128.189 68.5,129.5C 66.9222,130.072 65.4222,130.406 64,130.5C 63,146.5 62,146.5 61,130.5C 59.0807,129.926 57.2474,129.593 55.5,129.5 Z M 72.5,137.5 C 71.2337,131.896 73.7337,128.896 80,128.5C 89.0916,130.511 90.5916,135.011 84.5,142C 82.567,142.251 80.7337,142.751 79,143.5C 77.1839,142.671 75.3506,141.837 73.5,141C 72.6634,139.989 72.33,138.822 72.5,137.5 Z M 93.5,138.5 C 90.6731,134.557 91.6731,131.39 96.5,129C 104.717,127.232 108.55,130.399 108,138.5C 103.236,143.991 98.0697,144.491 92.5,140C 93.056,139.617 93.3893,139.117 93.5,138.5 Z M 130.5,128.5 C 133.807,128.063 136.807,128.73 139.5,130.5C 139.333,130.833 139.167,131.167 139,131.5C 135.616,128.679 132.45,128.846 129.5,132C 130.167,132.667 130.833,133.333 131.5,134C 134.224,134.27 136.891,134.77 139.5,135.5C 142.167,137.5 142.167,139.5 139.5,141.5C 135.598,143.446 131.598,143.28 127.5,141C 130.811,141.215 134.144,141.215 137.5,141C 140.167,139.333 140.167,137.667 137.5,136C 134.776,135.73 132.109,135.23 129.5,134.5C 128.229,132.194 128.562,130.194 130.5,128.5 Z M 112.5,130.5 C 112.56,129.957 112.893,129.624 113.5,129.5C 114.491,133.445 114.824,137.445 114.5,141.5C 117.85,141.335 121.183,141.502 124.5,142C 120.848,142.499 117.182,142.665 113.5,142.5C 113.767,138.32 113.434,134.32 112.5,130.5 Z"/></g>
<g><path style="opacity:1" fill="#fefffe" d="M 128.5,88.5 C 132.007,87.9935 135.174,88.6602 138,90.5C 138.667,91.8333 138.667,93.1667 138,94.5C 135.566,96.0233 132.899,97.0233 130,97.5C 128.603,96.7741 127.769,95.6075 127.5,94C 127.943,92.175 128.277,90.3417 128.5,88.5 Z"/></g>
<g><path style="opacity:1" fill="#fefffe" d="M 114.5,96.5 C 115.376,96.3691 116.043,96.7025 116.5,97.5C 115.444,101.682 114.444,105.849 113.5,110C 109.376,110.787 105.209,111.287 101,111.5C 100.075,110.953 99.2421,110.287 98.5,109.5C 102.994,106.086 107.66,102.919 112.5,100C 113.823,99.1841 114.489,98.0174 114.5,96.5 Z"/></g>
<g><path style="opacity:1" fill="#fefffe" d="M 127.5,102.5 C 131.797,101.75 135.13,103.083 137.5,106.5C 136.968,108.741 135.635,110.241 133.5,111C 130.518,111.498 127.518,111.665 124.5,111.5C 123.925,107.845 124.925,104.845 127.5,102.5 Z"/></g>
<g><path style="opacity:1" fill="#fefffe" d="M 72.5,137.5 C 72.9198,131.914 75.9198,129.414 81.5,130C 86.1152,131.077 87.6152,133.91 86,138.5C 81.1187,142.634 76.6187,142.3 72.5,137.5 Z"/></g>
<g><path style="opacity:1" fill="#fefffe" d="M 93.5,138.5 C 92.7764,131.724 95.7764,128.89 102.5,130C 107.414,133.171 107.747,136.837 103.5,141C 99.5789,142.139 96.2456,141.305 93.5,138.5 Z"/></g>
</svg>
