<?xml version="1.0" encoding="UTF-8"?>
<!DOCTYPE svg PUBLIC "-//W3C//DTD SVG 1.1//EN" "http://www.w3.org/Graphics/SVG/1.1/DTD/svg11.dtd">
<svg xmlns="http://www.w3.org/2000/svg" version="1.1" width="512px" height="512px" style="shape-rendering:geometricPrecision; text-rendering:geometricPrecision; image-rendering:optimizeQuality; fill-rule:evenodd; clip-rule:evenodd" xmlns:xlink="http://www.w3.org/1999/xlink">
<g><path style="opacity:0.986" fill="#fefffe" d="M 91.5,39.5 C 200.834,39.3333 310.167,39.5 419.5,40C 450.53,42.6971 467.697,59.5304 471,90.5C 471.667,200.5 471.667,310.5 471,420.5C 467.697,451.47 450.53,468.303 419.5,471C 310.167,471.667 200.833,471.667 91.5,471C 60.4606,468.294 43.2939,451.46 40,420.5C 39.0203,307.148 39.3536,193.815 41,80.5C 48.4825,55.1735 65.3158,41.5069 91.5,39.5 Z M 139.5,122.5 C 150.679,121.946 160.179,125.613 168,133.5C 177.396,151.954 172.229,164.787 152.5,172C 138.611,175.37 126.778,171.87 117,161.5C 109.862,148.547 112.029,137.38 123.5,128C 128.715,125.429 134.048,123.596 139.5,122.5 Z M 112.5,204.5 C 132.833,204.5 153.167,204.5 173.5,204.5C 173.5,269.167 173.5,333.833 173.5,398.5C 153.167,398.5 132.833,398.5 112.5,398.5C 112.5,333.833 112.5,269.167 112.5,204.5 Z M 204.5,204.5 C 224.833,204.5 245.167,204.5 265.5,204.5C 265.169,213.192 265.502,221.859 266.5,230.5C 289.088,207.6 316.088,200.1 347.5,208C 371.162,216.329 386.662,232.496 394,256.5C 396.089,264.034 397.422,271.7 398,279.5C 398.5,319.165 398.667,358.832 398.5,398.5C 378.167,398.5 357.833,398.5 337.5,398.5C 337.976,359.452 337.476,320.452 336,281.5C 331.058,263.855 319.392,254.855 301,254.5C 283.051,255.144 271.718,264.144 267,281.5C 265.53,320.46 265.03,359.46 265.5,398.5C 245.167,398.5 224.833,398.5 204.5,398.5C 204.5,333.833 204.5,269.167 204.5,204.5 Z"/></g>
</svg>
