<?xml version="1.0" encoding="UTF-8"?>
<!DOCTYPE svg PUBLIC "-//W3C//DTD SVG 1.1//EN" "http://www.w3.org/Graphics/SVG/1.1/DTD/svg11.dtd">
<svg xmlns="http://www.w3.org/2000/svg" version="1.1" width="225px" height="225px" style="shape-rendering:geometricPrecision; text-rendering:geometricPrecision; image-rendering:optimizeQuality; fill-rule:evenodd; clip-rule:evenodd" xmlns:xlink="http://www.w3.org/1999/xlink">
<g><path style="opacity:1" fill="#fefffe" d="M 99.5,-0.5 C 107.833,-0.5 116.167,-0.5 124.5,-0.5C 180.377,9.71028 213.71,42.7103 224.5,98.5C 224.5,107.5 224.5,116.5 224.5,125.5C 213.833,180.833 180.833,213.833 125.5,224.5C 116.5,224.5 107.5,224.5 98.5,224.5C 43.1757,213.842 10.1757,180.842 -0.5,125.5C -0.5,116.5 -0.5,107.5 -0.5,98.5C 10.2896,42.7103 43.623,9.71028 99.5,-0.5 Z M 112.5,46.5 C 115.585,53.1078 120.085,58.7744 126,63.5C 143.037,85.6856 147.037,110.019 138,136.5C 133.904,146.683 127.404,155.016 118.5,161.5C 116.692,167.012 115.525,172.679 115,178.5C 114.586,178.957 114.086,179.291 113.5,179.5C 112.209,174.212 111.209,168.879 110.5,163.5C 83.3744,140.731 76.2077,112.731 89,79.5C 91.4121,74.3413 94.0788,69.3413 97,64.5C 102.376,58.6279 107.543,52.6279 112.5,46.5 Z"/></g>
<g><path style="opacity:1" fill="#fefffe" d="M 112.5,98.5 C 114.26,101.701 115.094,105.367 115,109.5C 115.897,125.496 116.231,141.496 116,157.5C 113.685,154.223 112.351,150.556 112,146.5C 111.981,130.505 112.148,114.505 112.5,98.5 Z"/></g>
</svg>
