<?xml version="1.0" encoding="UTF-8"?>
<!DOCTYPE svg PUBLIC "-//W3C//DTD SVG 1.1//EN" "http://www.w3.org/Graphics/SVG/1.1/DTD/svg11.dtd">
<svg xmlns="http://www.w3.org/2000/svg" version="1.1" width="2048px" height="2048px" style="shape-rendering:geometricPrecision; text-rendering:geometricPrecision; image-rendering:optimizeQuality; fill-rule:evenodd; clip-rule:evenodd" xmlns:xlink="http://www.w3.org/1999/xlink">
<g><path style="opacity:0.996" fill="#fefffe" d="M 945.5,-0.5 C 990.167,-0.5 1034.83,-0.5 1079.5,-0.5C 1261.86,10.1275 1429.19,64.2941 1581.5,162C 1770.43,287.12 1905.59,455.954 1987,668.5C 2018.85,756.571 2039.02,847.238 2047.5,940.5C 2047.5,996.167 2047.5,1051.83 2047.5,1107.5C 2022.56,1364.98 1918.9,1583.31 1736.5,1762.5C 1683.1,1813.58 1625.1,1858.58 1562.5,1897.5C 1561.39,1896.28 1561.22,1894.94 1562,1893.5C 1566.04,1890.12 1570.54,1887.62 1575.5,1886C 1576.45,1885.28 1576.62,1884.45 1576,1883.5C 1391.1,1603.9 1206.1,1324.23 1021,1044.5C 936.716,914.598 851.383,785.598 765,657.5C 759.802,651.637 753.302,647.804 745.5,646C 719.83,644.04 694.164,644.04 668.5,646C 661.972,648.392 656.139,651.892 651,656.5C 647.677,660.46 644.344,664.46 641,668.5C 640.333,936.5 640.333,1204.5 641,1472.5C 651.697,1495.83 669.863,1504.83 695.5,1499.5C 708.529,1499.57 721.529,1499.07 734.5,1498C 744.933,1495.47 752.933,1489.64 758.5,1480.5C 759.897,1478.02 760.731,1475.35 761,1472.5C 762.11,1459.19 762.777,1445.86 763,1432.5C 763.662,1245.03 764.995,1057.69 767,870.5C 806.582,927.332 845.916,984.332 885,1041.5C 982.397,1186.35 1079.73,1331.01 1177,1475.5C 1262.8,1590.41 1348.13,1705.74 1433,1821.5C 1458.71,1855.2 1484.37,1888.86 1510,1922.5C 1510.81,1925.89 1509.64,1928.39 1506.5,1930C 1435.96,1967.25 1361.96,1996.25 1284.5,2017C 1227.73,2030.99 1170.4,2041.16 1112.5,2047.5C 1053.17,2047.5 993.833,2047.5 934.5,2047.5C 648.223,2016.99 413.389,1892.99 230,1675.5C 95.9775,1509.97 19.1442,1320.3 -0.5,1106.5C -0.5,1051.17 -0.5,995.833 -0.5,940.5C 28.9242,648.733 155.258,410.233 378.5,225C 543.837,92.7961 732.837,17.6294 945.5,-0.5 Z M 1317.5,615.5 C 1333.52,615.304 1349.52,615.804 1365.5,617C 1380.11,620.618 1389.95,629.451 1395,643.5C 1395.33,646.167 1395.67,648.833 1396,651.5C 1396.67,889.833 1396.67,1128.17 1396,1366.5C 1354.33,1302.83 1312.67,1239.17 1271,1175.5C 1270.33,998.832 1270.66,822.165 1272,645.5C 1279.88,624.447 1295.05,614.447 1317.5,615.5 Z"/></g>
<g><path style="opacity:0.313" fill="#fefffe" d="M 1556.5,1896.5 C 1557.98,1896.24 1559.31,1896.57 1560.5,1897.5C 1558.47,1901.35 1555.47,1902.69 1551.5,1901.5C 1552.88,1899.45 1554.55,1897.78 1556.5,1896.5 Z"/></g>
<g><path style="opacity:0.319" fill="#fefffe" d="M 1547.5,1901.5 C 1548.5,1901.5 1549.5,1901.5 1550.5,1901.5C 1549.76,1905.9 1547.1,1908.23 1542.5,1908.5C 1541.48,1908 1541.31,1907.33 1542,1906.5C 1543.81,1904.7 1545.65,1903.03 1547.5,1901.5 Z"/></g>
<g><path style="opacity:0.327" fill="#fefffe" d="M 1537.5,1907.5 C 1538.5,1907.5 1539.5,1907.5 1540.5,1907.5C 1540.76,1908.98 1540.43,1910.31 1539.5,1911.5C 1537.39,1912.64 1535.23,1913.64 1533,1914.5C 1531.74,1914.15 1531.41,1913.48 1532,1912.5C 1534.19,1911.17 1536.02,1909.5 1537.5,1907.5 Z"/></g>
<g><path style="opacity:0.373" fill="#fefffe" d="M 1521.5,1916.5 C 1523.53,1916.34 1525.53,1916.5 1527.5,1917C 1523.73,1921.27 1519.07,1923.77 1513.5,1924.5C 1513.28,1923.32 1513.61,1922.32 1514.5,1921.5C 1517.08,1920.06 1519.41,1918.39 1521.5,1916.5 Z"/></g>
</svg>
