<?xml version="1.0" encoding="UTF-8"?>
<!DOCTYPE svg PUBLIC "-//W3C//DTD SVG 1.1//EN" "http://www.w3.org/Graphics/SVG/1.1/DTD/svg11.dtd">
<svg xmlns="http://www.w3.org/2000/svg" version="1.1" width="1817px" height="2048px" style="shape-rendering:geometricPrecision; text-rendering:geometricPrecision; image-rendering:optimizeQuality; fill-rule:evenodd; clip-rule:evenodd" xmlns:xlink="http://www.w3.org/1999/xlink">
<g><path style="opacity:0.989" fill="#fefffe" d="M 885.5,-0.5 C 900.5,-0.5 915.5,-0.5 930.5,-0.5C 955.131,3.84548 978.131,12.3455 999.5,25C 1249.41,169.964 1499.41,314.964 1749.5,460C 1786.62,487.937 1808.96,524.771 1816.5,570.5C 1816.5,873.167 1816.5,1175.83 1816.5,1478.5C 1808.46,1526.32 1784.79,1564.16 1745.5,1592C 1492.18,1738.64 1238.85,1885.31 985.5,2032C 977.021,2035.57 968.355,2038.57 959.5,2041C 948.383,2043.26 937.383,2045.42 926.5,2047.5C 914.5,2047.5 902.5,2047.5 890.5,2047.5C 868.516,2043.78 847.516,2036.95 827.5,2027C 740.064,1974.44 652.397,1922.11 564.5,1870C 551.414,1859.26 552.748,1850.93 568.5,1845C 599.617,1836.33 629.284,1824.33 657.5,1809C 666.508,1803.16 675.841,1797.83 685.5,1793C 689.5,1792.33 693.5,1792.33 697.5,1793C 763.121,1831.48 828.454,1870.48 893.5,1910C 899.937,1913.47 906.603,1914.14 913.5,1912C 1159.88,1769.66 1406.21,1627.33 1652.5,1485C 1659.95,1480.55 1667.11,1475.72 1674,1470.5C 1675.62,1466.93 1676.95,1463.27 1678,1459.5C 1678.67,1168.5 1678.67,877.5 1678,586.5C 1676.62,577.449 1671.78,570.949 1663.5,567C 1414.32,424.476 1165.66,281.143 917.5,137C 909.818,133.73 902.151,133.73 894.5,137C 645.675,281.07 396.675,424.57 147.5,567.5C 140.05,571.731 135.55,578.064 134,586.5C 133.003,878.542 133.336,1170.54 135,1462.5C 135.735,1464.87 136.568,1467.2 137.5,1469.5C 139.692,1470.86 141.359,1472.69 142.5,1475C 211.85,1515.03 281.183,1555.03 350.5,1595C 374.899,1607.74 400.899,1614.91 428.5,1616.5C 486.463,1613.11 519.963,1582.78 529,1525.5C 529.003,1235.12 529.67,944.792 531,654.5C 533.908,648.627 538.408,644.46 544.5,642C 581.833,641.333 619.167,641.333 656.5,642C 663.732,644.899 668.565,650.066 671,657.5C 671.667,953.167 671.667,1248.83 671,1544.5C 668.74,1590.77 655.573,1633.43 631.5,1672.5C 603.509,1710.6 566.509,1735.77 520.5,1748C 510.14,1749.87 499.807,1751.87 489.5,1754C 457.79,1756.3 426.124,1755.96 394.5,1753C 372.367,1748.26 350.7,1741.92 329.5,1734C 310.411,1725.62 291.411,1716.96 272.5,1708C 213.663,1674.08 154.663,1640.41 95.5,1607C 83.8645,1600.51 72.5312,1593.51 61.5,1586C 27.7009,1559.28 7.03425,1524.44 -0.5,1481.5C -0.5,1177.17 -0.5,872.833 -0.5,568.5C 7.84649,520.644 32.1798,483.144 72.5,456C 320.03,313.042 567.363,169.708 814.5,26C 829.081,17.5092 844.414,10.5092 860.5,5C 868.985,3.29186 877.318,1.45853 885.5,-0.5 Z"/></g>
<g><path style="opacity:0.986" fill="#fefffe" d="M 1063.5,615.5 C 1135.32,611.154 1206.32,616.654 1276.5,632C 1405.76,663.613 1475.76,745.947 1486.5,879C 1485.53,884.377 1484.03,889.543 1482,894.5C 1478.43,899.031 1473.93,902.198 1468.5,904C 1432.83,904.667 1397.17,904.667 1361.5,904C 1358.17,902.333 1354.83,900.667 1351.5,899C 1349.32,896.46 1347.49,893.627 1346,890.5C 1340.45,859.088 1328.12,830.755 1309,805.5C 1294.61,789.806 1277.45,777.973 1257.5,770C 1236.13,762.159 1214.13,756.826 1191.5,754C 1152.57,749.963 1113.57,748.963 1074.5,751C 1046.63,752.107 1019.3,756.441 992.5,764C 971.334,770.67 952.834,781.837 937,797.5C 917.779,823.97 913.112,852.97 923,884.5C 931.856,898.349 944.023,908.183 959.5,914C 983.659,922.208 1008.33,928.875 1033.5,934C 1053.13,937.53 1072.8,940.863 1092.5,944C 1143.2,950.78 1193.87,957.78 1244.5,965C 1288.71,971.907 1332.05,982.24 1374.5,996C 1402.07,1005.95 1427.73,1019.28 1451.5,1036C 1467.2,1049.7 1480.7,1065.2 1492,1082.5C 1512.42,1123.05 1520.08,1166.05 1515,1211.5C 1509.94,1278.81 1481.44,1333.31 1429.5,1375C 1395.05,1400.22 1357.05,1418.56 1315.5,1430C 1270.32,1442.2 1224.32,1449.2 1177.5,1451C 1100.78,1454.76 1025.11,1447.76 950.5,1430C 902.642,1417.57 859.642,1395.91 821.5,1365C 777.018,1325.18 751.185,1275.34 744,1215.5C 742.565,1199.85 741.898,1184.19 742,1168.5C 744.168,1157.66 750.668,1151.16 761.5,1149C 796.167,1148.33 830.833,1148.33 865.5,1149C 875.393,1149.85 881.56,1155.01 884,1164.5C 886.717,1195.65 896.384,1224.32 913,1250.5C 927.279,1268.76 945.112,1282.6 966.5,1292C 996.559,1302.93 1027.56,1309.93 1059.5,1313C 1086.47,1314.85 1113.47,1316.01 1140.5,1316.5C 1177.72,1316.22 1214.72,1313.39 1251.5,1308C 1279.42,1303.26 1305.08,1293.26 1328.5,1278C 1348.75,1261.69 1360.92,1240.52 1365,1214.5C 1365.92,1201.78 1365.59,1189.11 1364,1176.5C 1361.88,1166.4 1357.21,1157.73 1350,1150.5C 1342.24,1144.04 1334.07,1138.21 1325.5,1133C 1312.14,1127.21 1298.47,1122.21 1284.5,1118C 1251.15,1109.93 1217.48,1103.26 1183.5,1098C 1150.21,1093.96 1116.88,1090.29 1083.5,1087C 1028.53,1081.42 974.53,1071.09 921.5,1056C 892.175,1046.34 864.842,1033 839.5,1016C 797.831,983.89 774.331,941.39 769,888.5C 759.261,787.127 798.094,711.627 885.5,662C 924.785,641.79 966.452,628.457 1010.5,622C 1028.32,619.856 1045.99,617.69 1063.5,615.5 Z"/></g>
</svg>
