<?xml version="1.0" encoding="UTF-8"?>
<!DOCTYPE svg PUBLIC "-//W3C//DTD SVG 1.1//EN" "http://www.w3.org/Graphics/SVG/1.1/DTD/svg11.dtd">
<svg xmlns="http://www.w3.org/2000/svg" version="1.1" width="186px" height="180px" style="shape-rendering:geometricPrecision; text-rendering:geometricPrecision; image-rendering:optimizeQuality; fill-rule:evenodd; clip-rule:evenodd" xmlns:xlink="http://www.w3.org/1999/xlink">
<g><path style="opacity:1" fill="#060302" d="M -0.5,-0.5 C 60.5,-0.5 121.5,-0.5 182.5,-0.5C 182.975,2.08209 182.308,4.08209 180.5,5.5C 151.508,4.16682 122.174,3.50015 92.5,3.5C 63.1667,3.83333 33.8333,4.16667 4.5,4.5C 4.62358,5.10667 4.95691,5.44001 5.5,5.5C 9.5,11.5 13.5,17.5 17.5,23.5C 17.2852,25.1788 17.9519,26.1788 19.5,26.5C 19.1961,27.1499 18.8627,27.8165 18.5,28.5C 19.1848,31.8879 20.5181,34.8879 22.5,37.5C 21.6801,71.4772 21.1801,105.477 21,139.5C 19.5949,142.619 19.0949,145.952 19.5,149.5C 16.1667,149.5 12.8333,149.5 9.5,149.5C 9.30275,154.059 9.63608,158.726 10.5,163.5C 8.83333,166.167 7.16667,168.833 5.5,171.5C 4.95691,171.56 4.62358,171.893 4.5,172.5C 63.1629,173.5 121.83,173.833 180.5,173.5C 123.541,174.337 65.2075,174.837 5.5,175C 7.16667,175.333 8.83333,175.667 10.5,176C 7.64883,178.248 4.3155,179.082 0.5,178.5C 0.784479,176.585 0.451145,174.919 -0.5,173.5C -0.5,115.5 -0.5,57.5 -0.5,-0.5 Z"/></g>
<g><path style="opacity:1" fill="#070302" d="M 182.5,-0.5 C 183.5,-0.5 184.5,-0.5 185.5,-0.5C 185.5,59.5 185.5,119.5 185.5,179.5C 123.5,179.5 61.5,179.5 -0.5,179.5C -0.5,177.5 -0.5,175.5 -0.5,173.5C 0.451145,174.919 0.784479,176.585 0.5,178.5C 4.3155,179.082 7.64883,178.248 10.5,176C 8.83333,175.667 7.16667,175.333 5.5,175C 65.2075,174.837 123.541,174.337 180.5,173.5C 180.672,172.508 180.338,171.842 179.5,171.5C 177.167,166.833 174.833,162.167 172.5,157.5C 173.265,154.904 173.599,152.237 173.5,149.5C 170.14,149.384 166.807,149.051 163.5,148.5C 163.005,146.176 163.005,144.009 163.5,142C 162.465,141.747 161.465,140.914 160.5,139.5C 159.516,136.572 159.183,133.572 159.5,130.5C 158.167,130.5 156.833,130.5 155.5,130.5C 151.595,121.457 148.262,112.124 145.5,102.5C 149.167,102.5 152.833,102.5 156.5,102.5C 157.15,102.196 157.817,101.863 158.5,101.5C 159.167,79.5 159.833,57.5 160.5,35.5C 162.699,32.4708 165.032,29.4708 167.5,26.5C 169.396,25.5344 171.396,25.2011 173.5,25.5C 173.296,22.4824 172.963,19.4824 172.5,16.5C 174.584,12.6641 176.917,8.99741 179.5,5.5C 179.833,5.5 180.167,5.5 180.5,5.5C 182.308,4.08209 182.975,2.08209 182.5,-0.5 Z"/></g>
<g><path style="opacity:1" fill="#b6b7b5" d="M 180.5,5.5 C 180.167,5.5 179.833,5.5 179.5,5.5C 121.5,4.16667 63.5,4.16667 5.5,5.5C 4.95691,5.44001 4.62358,5.10667 4.5,4.5C 33.8333,4.16667 63.1667,3.83333 92.5,3.5C 122.174,3.50015 151.508,4.16682 180.5,5.5 Z"/></g>
<g><path style="opacity:1" fill="#fcfcfc" d="M 179.5,5.5 C 176.917,8.99741 174.584,12.6641 172.5,16.5C 170.408,19.681 168.075,22.681 165.5,25.5C 115.949,26.1546 66.6161,25.488 17.5,23.5C 13.5,17.5 9.5,11.5 5.5,5.5C 63.5,4.16667 121.5,4.16667 179.5,5.5 Z"/></g>
<g><path style="opacity:1" fill="#444341" d="M 17.5,23.5 C 66.6161,25.488 115.949,26.1546 165.5,25.5C 117.003,26.4988 68.3362,26.8322 19.5,26.5C 17.9519,26.1788 17.2852,25.1788 17.5,23.5 Z"/></g>
<g><path style="opacity:1" fill="#0b0908" d="M 172.5,16.5 C 172.963,19.4824 173.296,22.4824 173.5,25.5C 171.396,25.2011 169.396,25.5344 167.5,26.5C 165.032,29.4708 162.699,32.4708 160.5,35.5C 159.833,57.5 159.167,79.5 158.5,101.5C 157.817,101.863 157.15,102.196 156.5,102.5C 156.5,80.5 156.5,58.5 156.5,36.5C 136.674,35.5029 116.674,35.1695 96.5,35.5C 96.5,70.5 96.5,105.5 96.5,140.5C 103.648,141.492 110.981,141.825 118.5,141.5C 118.5,128.833 118.5,116.167 118.5,103.5C 120.5,103.5 122.5,103.5 124.5,103.5C 128.504,115.844 132.504,128.178 136.5,140.5C 143.648,141.492 150.981,141.825 158.5,141.5C 158.737,140.209 158.404,139.209 157.5,138.5C 156.833,135.833 156.167,133.167 155.5,130.5C 156.833,130.5 158.167,130.5 159.5,130.5C 159.183,133.572 159.516,136.572 160.5,139.5C 161.465,140.914 162.465,141.747 163.5,142C 163.005,144.009 163.005,146.176 163.5,148.5C 166.807,149.051 170.14,149.384 173.5,149.5C 173.599,152.237 173.265,154.904 172.5,157.5C 171.275,156.063 170.275,154.396 169.5,152.5C 119.17,151.333 68.8366,151.167 18.5,152C 15.9703,156.013 13.3036,159.846 10.5,163.5C 9.63608,158.726 9.30275,154.059 9.5,149.5C 12.8333,149.5 16.1667,149.5 19.5,149.5C 19.0949,145.952 19.5949,142.619 21,139.5C 21.1801,105.477 21.6801,71.4772 22.5,37.5C 20.5181,34.8879 19.1848,31.8879 18.5,28.5C 18.8627,27.8165 19.1961,27.1499 19.5,26.5C 68.3362,26.8322 117.003,26.4988 165.5,25.5C 168.075,22.681 170.408,19.681 172.5,16.5 Z"/></g>
<g><path style="opacity:1" fill="#8a8a8a" d="M 25.5,36.5 C 28.8167,35.8348 32.3167,35.5014 36,35.5C 39.9018,35.5123 43.4018,36.179 46.5,37.5C 39.5878,36.5379 32.5878,36.2045 25.5,36.5 Z"/></g>
<g><path style="opacity:1" fill="#fcfcfb" d="M 156.5,36.5 C 156.5,58.5 156.5,80.5 156.5,102.5C 152.833,102.5 149.167,102.5 145.5,102.5C 148.262,112.124 151.595,121.457 155.5,130.5C 156.167,133.167 156.833,135.833 157.5,138.5C 150.913,140.461 143.913,141.128 136.5,140.5C 132.504,128.178 128.504,115.844 124.5,103.5C 122.393,102.532 120.059,102.198 117.5,102.5C 117.5,115.167 117.5,127.833 117.5,140.5C 110.833,140.5 104.167,140.5 97.5,140.5C 97.5,105.833 97.5,71.1667 97.5,36.5C 117.167,36.5 136.833,36.5 156.5,36.5 Z"/></g>
<g><path style="opacity:1" fill="#fbfbfb" d="M 25.5,36.5 C 32.5878,36.2045 39.5878,36.5379 46.5,37.5C 52.6951,53.4176 58.6951,69.4176 64.5,85.5C 64.4614,86.7562 64.9614,87.7562 66,88.5C 66.4999,71.1699 66.6666,53.8365 66.5,36.5C 72.8333,36.5 79.1667,36.5 85.5,36.5C 85.5,71.5 85.5,106.5 85.5,141.5C 78.5,141.5 71.5,141.5 64.5,141.5C 58.8964,124.356 52.8964,107.356 46.5,90.5C 46.0133,89.5266 45.5133,88.5266 45,87.5C 44.5001,105.164 44.3334,122.83 44.5,140.5C 38.1667,140.5 31.8333,140.5 25.5,140.5C 25.5,105.833 25.5,71.1667 25.5,36.5 Z"/></g>
<g><path style="opacity:1" fill="#c2c2c2" d="M 156.5,36.5 C 136.833,36.5 117.167,36.5 97.5,36.5C 97.5,71.1667 97.5,105.833 97.5,140.5C 97.1667,140.5 96.8333,140.5 96.5,140.5C 96.5,105.5 96.5,70.5 96.5,35.5C 116.674,35.1695 136.674,35.5029 156.5,36.5 Z"/></g>
<g><path style="opacity:1" fill="#858584" d="M 85.5,36.5 C 79.1667,36.5 72.8333,36.5 66.5,36.5C 66.6666,53.8365 66.4999,71.1699 66,88.5C 64.9614,87.7562 64.4614,86.7562 64.5,85.5C 65.4965,69.0084 65.8298,52.3417 65.5,35.5C 72.3543,35.176 79.021,35.5093 85.5,36.5 Z"/></g>
<g><path style="opacity:1" fill="#b8b8b7" d="M 134.5,56.5 C 129.167,56.5 123.833,56.5 118.5,56.5C 118.5,65.5 118.5,74.5 118.5,83.5C 117.506,74.3483 117.173,65.015 117.5,55.5C 123.358,55.1778 129.025,55.5111 134.5,56.5 Z"/></g>
<g><path style="opacity:1" fill="#090505" d="M 134.5,56.5 C 134.5,65.5 134.5,74.5 134.5,83.5C 129.167,83.5 123.833,83.5 118.5,83.5C 118.5,74.5 118.5,65.5 118.5,56.5C 123.833,56.5 129.167,56.5 134.5,56.5 Z"/></g>
<g><path style="opacity:1" fill="#6b6a6a" d="M 46.5,90.5 C 45.5034,107.325 45.1701,124.325 45.5,141.5C 38.6457,141.824 31.979,141.491 25.5,140.5C 31.8333,140.5 38.1667,140.5 44.5,140.5C 44.3334,122.83 44.5001,105.164 45,87.5C 45.5133,88.5266 46.0133,89.5266 46.5,90.5 Z"/></g>
<g><path style="opacity:1" fill="#b4b3b2" d="M 124.5,103.5 C 122.5,103.5 120.5,103.5 118.5,103.5C 118.5,116.167 118.5,128.833 118.5,141.5C 110.981,141.825 103.648,141.492 96.5,140.5C 96.8333,140.5 97.1667,140.5 97.5,140.5C 104.167,140.5 110.833,140.5 117.5,140.5C 117.5,127.833 117.5,115.167 117.5,102.5C 120.059,102.198 122.393,102.532 124.5,103.5 Z"/></g>
<g><path style="opacity:1" fill="#8c8a89" d="M 157.5,138.5 C 158.404,139.209 158.737,140.209 158.5,141.5C 150.981,141.825 143.648,141.492 136.5,140.5C 143.913,141.128 150.913,140.461 157.5,138.5 Z"/></g>
<g><path style="opacity:1" fill="#fcfcfc" d="M 172.5,157.5 C 174.833,162.167 177.167,166.833 179.5,171.5C 121.5,172.833 63.5,172.833 5.5,171.5C 7.16667,168.833 8.83333,166.167 10.5,163.5C 13.3036,159.846 15.9703,156.013 18.5,152C 68.8366,151.167 119.17,151.333 169.5,152.5C 170.275,154.396 171.275,156.063 172.5,157.5 Z"/></g>
<g><path style="opacity:1" fill="#b6b4b5" d="M 5.5,171.5 C 63.5,172.833 121.5,172.833 179.5,171.5C 180.338,171.842 180.672,172.508 180.5,173.5C 121.83,173.833 63.1629,173.5 4.5,172.5C 4.62358,171.893 4.95691,171.56 5.5,171.5 Z"/></g>
</svg>
