<?xml version="1.0" encoding="UTF-8"?>
<!DOCTYPE svg PUBLIC "-//W3C//DTD SVG 1.1//EN" "http://www.w3.org/Graphics/SVG/1.1/DTD/svg11.dtd">
<svg xmlns="http://www.w3.org/2000/svg" version="1.1" width="2048px" height="1291px" style="shape-rendering:geometricPrecision; text-rendering:geometricPrecision; image-rendering:optimizeQuality; fill-rule:evenodd; clip-rule:evenodd" xmlns:xlink="http://www.w3.org/1999/xlink">
<g><path style="opacity:0.993" fill="#fefffe" d="M 597.5,-0.5 C 881.167,-0.5 1164.83,-0.5 1448.5,-0.5C 1618.3,13.9951 1761.47,82.6617 1878,205.5C 1979.47,318.206 2035.97,450.873 2047.5,603.5C 2047.5,631.167 2047.5,658.833 2047.5,686.5C 2033.57,861.181 1962.9,1007.68 1835.5,1126C 1723.78,1224.2 1593.11,1279.03 1443.5,1290.5C 1164.17,1290.5 884.833,1290.5 605.5,1290.5C 403.09,1274.41 241.257,1185.74 120,1024.5C 49.3205,923.998 9.15385,811.998 -0.5,688.5C -0.5,658.833 -0.5,629.167 -0.5,599.5C 11.709,448.185 68.209,316.851 169,205.5C 285.135,83.0276 427.968,14.3609 597.5,-0.5 Z M 648.5,228.5 C 904.178,228.015 1159.84,228.515 1415.5,230C 1545.6,242.876 1648.76,302.042 1725,407.5C 1797.67,518.006 1816.34,637.339 1781,765.5C 1751.04,859.756 1695.54,934.922 1614.5,991C 1544.34,1036.89 1467.01,1060.22 1382.5,1061C 1134.83,1061.98 887.159,1061.64 639.5,1060C 561.282,1054.4 490.282,1029.4 426.5,985C 320.703,907.314 261.536,802.481 249,670.5C 244.067,528.926 294.901,412.592 401.5,321.5C 473.547,264.009 555.88,233.009 648.5,228.5 Z"/></g>
</svg>
