<?xml version="1.0" encoding="UTF-8"?>
<!DOCTYPE svg PUBLIC "-//W3C//DTD SVG 1.1//EN" "http://www.w3.org/Graphics/SVG/1.1/DTD/svg11.dtd">
<svg xmlns="http://www.w3.org/2000/svg" version="1.1" width="221px" height="228px" style="shape-rendering:geometricPrecision; text-rendering:geometricPrecision; image-rendering:optimizeQuality; fill-rule:evenodd; clip-rule:evenodd" xmlns:xlink="http://www.w3.org/1999/xlink">
<g><path style="opacity:1" fill="#fefffe" d="M 157.5,5.5 C 177.439,4.64008 194.272,11.3067 208,25.5C 209.861,27.8877 211.194,30.5544 212,33.5C 211.389,68.5025 201.222,100.502 181.5,129.5C 181.167,129 180.833,128.5 180.5,128C 182.594,124.051 184.094,119.884 185,115.5C 185.615,105.121 185.115,94.7877 183.5,84.5C 184.556,76.1499 185.556,67.8165 186.5,59.5C 179.558,36.0667 165.225,18.9 143.5,8C 148.294,7.09788 152.961,6.26455 157.5,5.5 Z"/></g>
<g><path style="opacity:1" fill="#fefffe" d="M 107.5,8.5 C 140.804,7.56396 164.304,22.2306 178,52.5C 178.781,53.9437 178.614,55.277 177.5,56.5C 170.152,55.2802 163.152,56.4468 156.5,60C 152.349,64.1147 150.349,69.1147 150.5,75C 151.158,82.466 152.992,89.6327 156,96.5C 162.407,109.653 169.574,122.32 177.5,134.5C 173.604,135.564 170.771,137.897 169,141.5C 166.914,159.852 164.581,178.185 162,196.5C 161.456,206.687 156.623,213.854 147.5,218C 138.492,222.497 129.825,222.164 121.5,217C 119.273,214.436 117.439,211.603 116,208.5C 114.151,200.622 113.151,192.622 113,184.5C 112.667,170.833 112.333,157.167 112,143.5C 109.341,137.665 104.841,134.998 98.5,135.5C 101.985,125.188 105.485,114.855 109,104.5C 110.253,91.9649 109.253,79.6316 106,67.5C 102.672,60.3299 97.0057,56.6632 89,56.5C 81.4673,57.2983 74.4673,59.6316 68,63.5C 68.4227,50.2294 72.0893,37.896 79,26.5C 86.0687,16.5542 95.5687,10.5542 107.5,8.5 Z"/></g>
<g><path style="opacity:1" fill="#fefffe" d="M 37.5,9.5 C 52.2442,8.31969 66.5776,10.153 80.5,15C 69.4748,27.7245 63.3081,42.5578 62,59.5C 61.4497,77.1761 61.1163,94.8427 61,112.5C 62.6329,120.602 66.4663,127.436 72.5,133C 64.8333,141.333 57.1667,149.667 49.5,158C 43.7309,159.368 39.2309,157.534 36,152.5C 25.9262,135.676 18.5928,117.676 14,98.5C 8.39614,80.2164 6.06281,61.5498 7,42.5C 9.81481,24.5243 19.9815,13.5243 37.5,9.5 Z"/></g>
<g><path style="opacity:1" fill="#fefffe" d="M 171.5,61.5 C 174.096,62.2653 176.763,62.5987 179.5,62.5C 179.069,70.016 178.403,77.516 177.5,85C 178.813,94.4718 179.313,103.972 179,113.5C 178.583,116.422 177.583,119.089 176,121.5C 170.76,112.022 165.76,102.355 161,92.5C 157.743,85.4799 156.409,78.1466 157,70.5C 157.792,68.4127 158.959,66.5793 160.5,65C 164.102,63.2428 167.768,62.0761 171.5,61.5 Z"/></g>
<g><path style="opacity:1" fill="#fefffe" d="M 82.5,63.5 C 93.8992,60.7689 100.399,65.1023 102,76.5C 103.419,85.1254 103.752,93.792 103,102.5C 99.4949,112.841 95.9949,123.174 92.5,133.5C 78.6546,132.495 70.1546,125.162 67,111.5C 67.4838,97.4379 67.9838,83.4379 68.5,69.5C 73.2562,67.4485 77.9228,65.4485 82.5,63.5 Z"/></g>
<g><path style="opacity:1" fill="#fefffe" d="M 179.5,140.5 C 184.735,142.737 190.235,144.07 196,144.5C 201.176,143.622 206.343,143.122 211.5,143C 200.157,151.37 187.491,154.204 173.5,151.5C 173.188,146.448 175.188,142.782 179.5,140.5 Z"/></g>
<g><path style="opacity:1" fill="#fefffe" d="M 99.5,141.5 C 105.392,142.264 107.559,145.598 106,151.5C 96.2589,162.314 84.7589,164.814 71.5,159C 77.9614,157.13 84.2948,154.797 90.5,152C 93.3941,148.283 96.3941,144.783 99.5,141.5 Z"/></g>
</svg>
