<?xml version="1.0" encoding="UTF-8"?>
<!DOCTYPE svg PUBLIC "-//W3C//DTD SVG 1.1//EN" "http://www.w3.org/Graphics/SVG/1.1/DTD/svg11.dtd">
<svg xmlns="http://www.w3.org/2000/svg" version="1.1" width="2048px" height="1793px" style="shape-rendering:geometricPrecision; text-rendering:geometricPrecision; image-rendering:optimizeQuality; fill-rule:evenodd; clip-rule:evenodd" xmlns:xlink="http://www.w3.org/1999/xlink">
<g><path style="opacity:0.979" fill="#fefffe" d="M 1410.5,-0.5 C 1425.5,-0.5 1440.5,-0.5 1455.5,-0.5C 1515.85,7.08368 1561.35,37.0837 1592,89.5C 1611.66,125.129 1624.99,163.129 1632,203.5C 1639.54,251.209 1642.2,299.209 1640,347.5C 1636.43,418.914 1625.93,489.248 1608.5,558.5C 1636.04,567.957 1663.71,577.124 1691.5,586C 1748.36,606.961 1803.36,631.961 1856.5,661C 1893.88,682.51 1928.88,707.344 1961.5,735.5C 1984.57,757.042 2004.74,780.709 2022,806.5C 2034.15,827.142 2042.65,849.142 2047.5,872.5C 2047.5,887.167 2047.5,901.833 2047.5,916.5C 2041.12,946.58 2029.29,974.246 2012,999.5C 1987.15,1032.35 1958.31,1061.19 1925.5,1086C 1883.24,1116.79 1838.57,1143.46 1791.5,1166C 1733.42,1192.37 1673.75,1215.04 1612.5,1234C 1639.41,1335.16 1648.91,1438 1641,1542.5C 1636.4,1596.93 1621.74,1648.26 1597,1696.5C 1575.22,1736.28 1543.39,1764.78 1501.5,1782C 1486.56,1786.2 1471.56,1789.7 1456.5,1792.5C 1440.17,1792.5 1423.83,1792.5 1407.5,1792.5C 1360.53,1785.86 1315.53,1772.36 1272.5,1752C 1256.47,1743.65 1240.47,1735.32 1224.5,1727C 1152.61,1684.13 1086.78,1633.29 1027,1574.5C 966.97,1632.84 900.803,1683.34 828.5,1726C 779.703,1754.21 727.703,1774.55 672.5,1787C 659.998,1788.64 647.665,1790.47 635.5,1792.5C 622.167,1792.5 608.833,1792.5 595.5,1792.5C 553.532,1788.69 516.865,1772.86 485.5,1745C 461.028,1718.89 442.528,1689.06 430,1655.5C 417,1615.55 409,1574.55 406,1532.5C 403.135,1484.05 404.468,1435.72 410,1387.5C 416.309,1336.94 425.476,1286.94 437.5,1237.5C 339.054,1210.16 247.054,1169.66 161.5,1116C 126.693,1092.97 94.526,1066.47 65,1036.5C 38.1219,1008.41 18.1219,976.075 5,939.5C 3.60941,931.609 1.77608,923.942 -0.5,916.5C -0.5,901.833 -0.5,887.167 -0.5,872.5C 2.73301,855.965 7.89968,839.965 15,824.5C 23.9093,807.694 33.9093,791.694 45,776.5C 70.7689,747.052 99.2689,720.885 130.5,698C 173.439,668.194 218.773,642.528 266.5,621C 322.306,596.059 379.806,575.226 439,558.5C 426.172,504.493 416.505,449.827 410,394.5C 402.398,326.518 404.398,258.852 416,191.5C 449.544,31.6744 545.378,-27.1589 703.5,15C 729.587,23.8863 755.253,33.8863 780.5,45C 838.701,74.4367 893.368,109.437 944.5,150C 971.977,172.813 998.81,196.313 1025,220.5C 1083.49,163.012 1147.66,112.846 1217.5,70C 1250.97,50.4348 1285.97,33.7681 1322.5,20C 1351.24,10.1326 1380.57,3.2993 1410.5,-0.5 Z M 1420.5,86.5 C 1458.16,82.7586 1488.32,95.7586 1511,125.5C 1528.75,155.065 1540.42,187.065 1546,221.5C 1550.85,251.799 1553.02,282.299 1552.5,313C 1551.8,389.022 1542.13,463.856 1523.5,537.5C 1435.07,517.85 1345.74,503.683 1255.5,495C 1228.16,456.977 1199.99,419.477 1171,382.5C 1143.42,348.94 1115.26,316.107 1086.5,284C 1146.99,223.778 1214.32,172.778 1288.5,131C 1321.18,113.55 1355.51,100.217 1391.5,91C 1401.37,89.9082 1411.04,88.4082 1420.5,86.5 Z M 605.5,88.5 C 617.859,88.881 630.193,89.7144 642.5,91C 674.31,97.5758 704.977,107.576 734.5,121C 785.641,145.908 833.641,175.908 878.5,211C 907.513,234.359 935.513,258.692 962.5,284C 901.201,350.331 844.534,420.664 792.5,495C 702.771,503.372 613.938,517.205 526,536.5C 525.055,536.095 524.388,535.428 524,534.5C 510.678,482.222 501.345,429.222 496,375.5C 490.726,320.28 492.393,265.28 501,210.5C 505.468,184.319 514.135,159.653 527,136.5C 544.377,106.318 570.544,90.3184 605.5,88.5 Z M 1023.5,347.5 C 1029.06,352.554 1034.56,357.887 1040,363.5C 1074.44,403.715 1107.94,444.715 1140.5,486.5C 1139,486.833 1137.5,487.167 1136,487.5C 1059.5,483.709 982.997,483.543 906.5,487C 926.547,461.742 946.713,436.575 967,411.5C 985.677,389.992 1004.51,368.658 1023.5,347.5 Z M 967.5,572.5 C 1032.53,571.849 1097.53,573.015 1162.5,576C 1177.22,576.825 1191.89,578.158 1206.5,580C 1274.87,680.749 1336.21,785.749 1390.5,895C 1341.72,993.09 1287.89,1088.26 1229,1180.5C 1221.53,1191.31 1214.03,1202.15 1206.5,1213C 1084.84,1221.47 963.174,1221.64 841.5,1213.5C 772.981,1113.15 712.147,1008.15 659,898.5C 658.726,895.351 659.392,892.351 661,889.5C 713.288,781.729 773.122,678.563 840.5,580C 845.769,578.894 851.103,578.227 856.5,578C 893.648,576.014 930.648,574.18 967.5,572.5 Z M 722.5,590.5 C 724.199,590.34 725.866,590.506 727.5,591C 685.979,656.29 647.145,723.456 611,792.5C 587.677,736.835 566.844,680.168 548.5,622.5C 555.047,620.362 561.714,618.529 568.5,617C 619.721,606.652 671.054,597.819 722.5,590.5 Z M 1319.5,591.5 C 1320.1,590.861 1320.93,590.528 1322,590.5C 1381.49,599.099 1440.66,609.432 1499.5,621.5C 1482.45,679.666 1461.45,736.333 1436.5,791.5C 1399.72,723.169 1360.72,656.502 1319.5,591.5 Z M 460.5,643.5 C 462.124,643.36 463.29,644.027 464,645.5C 490.175,730.204 521.842,812.537 559,892.5C 559.667,895.167 559.667,897.833 559,900.5C 539.257,942.052 521.257,984.385 505,1027.5C 489.812,1069.23 475.145,1111.23 461,1153.5C 435.974,1144.96 410.807,1136.79 385.5,1129C 316.612,1105.39 251.612,1074.05 190.5,1035C 175.321,1023.91 160.321,1012.58 145.5,1001C 112.61,971.725 92.943,935.225 86.5,891.5C 87.7488,879.593 90.9155,868.259 96,857.5C 101.915,846.933 108.582,836.933 116,827.5C 127.627,815.707 139.46,804.04 151.5,792.5C 182.458,767.68 215.458,745.847 250.5,727C 317.829,692.609 387.829,664.776 460.5,643.5 Z M 1584.5,644.5 C 1677.37,669.681 1764.71,707.181 1846.5,757C 1865.06,769.622 1883.06,782.955 1900.5,797C 1910.99,806.655 1920.99,816.822 1930.5,827.5C 1940.84,840.013 1949.34,853.68 1956,868.5C 1963.24,889.889 1961.58,910.556 1951,930.5C 1948.08,937.278 1944.41,943.611 1940,949.5C 1924.32,969.982 1906.49,988.482 1886.5,1005C 1840.06,1040.24 1790.06,1069.91 1736.5,1094C 1688.7,1115.21 1639.7,1133.38 1589.5,1148.5C 1560.88,1061.5 1526.88,976.67 1487.5,894C 1525.49,813.163 1557.82,729.997 1584.5,644.5 Z M 1436.5,997.5 C 1438.47,999.428 1439.97,1001.76 1441,1004.5C 1464.51,1058.84 1485.18,1114.17 1503,1170.5C 1442.46,1184.93 1381.3,1195.43 1319.5,1202C 1361.55,1135.74 1400.55,1067.57 1436.5,997.5 Z M 610.5,1000.5 C 630.388,1037.01 650.555,1073.34 671,1109.5C 690.32,1141.15 709.82,1172.65 729.5,1204C 668.05,1197.42 607.05,1187.75 546.5,1175C 565.451,1115.94 586.785,1057.77 610.5,1000.5 Z M 1526.5,1256.5 C 1528.83,1259.61 1530.33,1263.27 1531,1267.5C 1538.72,1302.29 1545.39,1337.29 1551,1372.5C 1558.33,1432.83 1558.33,1493.17 1551,1553.5C 1548.72,1598 1533.72,1637.34 1506,1671.5C 1498.07,1680.1 1489.57,1687.93 1480.5,1695C 1460.15,1704.27 1438.81,1707.6 1416.5,1705C 1390.81,1701.33 1365.81,1694.99 1341.5,1686C 1290.1,1664.59 1242.1,1637.26 1197.5,1604C 1159.48,1575.98 1123.65,1545.48 1090,1512.5C 1090.04,1510.72 1090.71,1509.05 1092,1507.5C 1151.53,1441.48 1206.36,1371.81 1256.5,1298.5C 1347.64,1290.77 1437.64,1276.77 1526.5,1256.5 Z M 523.5,1259.5 C 612.667,1277.93 702.667,1290.76 793.5,1298C 845.784,1372.36 902.95,1442.86 965,1509.5C 884.881,1592.74 790.048,1654.91 680.5,1696C 639.904,1708.39 599.904,1706.72 560.5,1691C 543.023,1678.85 529.856,1663.01 521,1643.5C 508.25,1614.11 499.916,1583.44 496,1551.5C 489.736,1480.05 493.07,1409.05 506,1338.5C 511.375,1312.01 517.209,1285.67 523.5,1259.5 Z M 908.5,1305.5 C 985.189,1308.49 1061.86,1308.16 1138.5,1304.5C 1139.83,1304.83 1141.17,1305.17 1142.5,1305.5C 1115.97,1341.2 1088.47,1376.2 1060,1410.5C 1049.36,1422.8 1038.36,1434.8 1027,1446.5C 1016.62,1436.46 1006.62,1426.12 997,1415.5C 988.326,1404.83 979.659,1394.16 971,1383.5C 948.905,1358.56 928.071,1332.56 908.5,1305.5 Z"/></g>
<g><path style="opacity:0.989" fill="#fefffe" d="M 1015.5,711.5 C 1073.45,710.508 1121.95,730.841 1161,772.5C 1207.12,828.727 1218.79,891.727 1196,961.5C 1171.13,1021.68 1126.97,1059.85 1063.5,1076C 993.786,1088.58 934.62,1069.74 886,1019.5C 839.699,963.306 828.033,900.306 851,830.5C 882.024,758.358 936.857,718.691 1015.5,711.5 Z"/></g>
</svg>
