<?xml version="1.0" encoding="UTF-8"?>
<!DOCTYPE svg PUBLIC "-//W3C//DTD SVG 1.1//EN" "http://www.w3.org/Graphics/SVG/1.1/DTD/svg11.dtd">
<svg xmlns="http://www.w3.org/2000/svg" version="1.1" width="2560px" height="1565px" style="shape-rendering:geometricPrecision; text-rendering:geometricPrecision; image-rendering:optimizeQuality; fill-rule:evenodd; clip-rule:evenodd" xmlns:xlink="http://www.w3.org/1999/xlink">
<g><path style="opacity:0.996" fill="#fefffe" d="M 1235.5,-0.5 C 1264.83,-0.5 1294.17,-0.5 1323.5,-0.5C 1491.83,5.30094 1638.83,63.4676 1764.5,174C 1781.17,189.333 1797.83,204.667 1814.5,220C 1853.89,259.387 1893.22,298.721 1932.5,338C 1959.5,363.648 1988.5,386.648 2019.5,407C 2070.91,438.802 2126.91,456.135 2187.5,459C 2266.74,463.607 2339.74,444.607 2406.5,402C 2444.52,377.34 2479.02,348.174 2510,314.5C 2527.12,295.228 2543.62,275.561 2559.5,255.5C 2559.5,256.833 2559.5,258.167 2559.5,259.5C 2538.67,344.166 2505.84,423.833 2461,498.5C 2377.66,629.743 2259.82,712.91 2107.5,748C 2020.37,766.73 1932.37,772.397 1843.5,765C 1705.67,755.298 1582.34,708.632 1473.5,625C 1442.9,600.178 1413.23,574.178 1384.5,547C 1344.78,507.279 1305.11,467.613 1265.5,428C 1238.65,402.925 1209.99,380.258 1179.5,360C 1128.38,328.407 1072.72,311.074 1012.5,308C 921.807,303.459 840.14,328.125 767.5,382C 718.922,419.244 676.422,462.411 640,511.5C 660.965,418.24 697.298,331.573 749,251.5C 827.877,135.703 935.377,59.8693 1071.5,24C 1125.5,10.3587 1180.16,2.19202 1235.5,-0.5 Z"/></g>
<g><path style="opacity:0.996" fill="#fefffe" d="M -0.5,1279.5 C -0.5,1278.17 -0.5,1276.83 -0.5,1275.5C 20.3297,1190.83 53.1631,1111.17 98,1036.5C 189.149,894.761 318.316,809.261 485.5,780C 557.053,767.84 629.053,764.173 701.5,769C 851.149,776.857 983.816,827.524 1099.5,921C 1125.1,942.592 1150.1,964.925 1174.5,988C 1213.89,1027.39 1253.22,1066.72 1292.5,1106C 1323.65,1135.83 1357.65,1161.83 1394.5,1184C 1442.26,1209.7 1493.26,1224.03 1547.5,1227C 1626.74,1231.61 1699.74,1212.61 1766.5,1170C 1824.75,1131.09 1874.58,1083.25 1916,1026.5C 1917,1025.5 1918,1024.5 1919,1023.5C 1895.43,1130.94 1851.1,1228.61 1786,1316.5C 1698.94,1425.49 1586.44,1493.32 1448.5,1520C 1372.12,1534.6 1295.12,1539.26 1217.5,1534C 1067.88,1526.15 935.217,1475.49 819.5,1382C 793.904,1360.41 768.904,1338.07 744.5,1315C 705.113,1275.61 665.779,1236.28 626.5,1197C 595.346,1167.17 561.346,1141.17 524.5,1119C 477.046,1093.47 426.379,1079.14 372.5,1076C 281.807,1071.46 200.14,1096.13 127.5,1150C 99.544,1171.28 73.3773,1194.78 49,1220.5C 31.8832,1239.77 15.3832,1259.44 -0.5,1279.5 Z"/></g>
</svg>
