<?xml version="1.0" encoding="UTF-8"?>
<!DOCTYPE svg PUBLIC "-//W3C//DTD SVG 1.1//EN" "http://www.w3.org/Graphics/SVG/1.1/DTD/svg11.dtd">
<svg xmlns="http://www.w3.org/2000/svg" version="1.1" width="256px" height="256px" style="shape-rendering:geometricPrecision; text-rendering:geometricPrecision; image-rendering:optimizeQuality; fill-rule:evenodd; clip-rule:evenodd" xmlns:xlink="http://www.w3.org/1999/xlink">
<g><path style="opacity:0.973" fill="#fefffe" d="M 115.5,-0.5 C 116.5,-0.5 117.5,-0.5 118.5,-0.5C 118.667,14.837 118.5,30.1703 118,45.5C 105.916,52.7927 93.749,59.9594 81.5,67C 79.6734,67.8993 78.34,69.2326 77.5,71C 93.6816,81.5932 110.348,91.4266 127.5,100.5C 144.652,91.4266 161.318,81.5932 177.5,71C 176.66,69.2326 175.327,67.8993 173.5,67C 161.251,59.9594 149.084,52.7927 137,45.5C 136.5,30.1703 136.333,14.837 136.5,-0.5C 137.5,-0.5 138.5,-0.5 139.5,-0.5C 172.686,19.0145 205.853,38.6812 239,58.5C 239.667,98.8333 239.667,139.167 239,179.5C 226.415,171.456 213.582,163.789 200.5,156.5C 199.501,140.18 199.167,123.847 199.5,107.5C 197.692,107.491 196.025,107.991 194.5,109C 179.001,117.915 163.668,127.082 148.5,136.5C 147.512,156.12 147.179,175.787 147.5,195.5C 149.655,195.628 151.655,195.128 153.5,194C 165.506,186.328 177.839,179.162 190.5,172.5C 203.998,180.081 217.331,187.915 230.5,196C 196.664,215.697 162.997,235.53 129.5,255.5C 128.167,255.5 126.833,255.5 125.5,255.5C 92.0029,235.53 58.3362,215.697 24.5,196C 37.6689,187.915 51.0022,180.081 64.5,172.5C 77.161,179.162 89.4943,186.328 101.5,194C 103.345,195.128 105.345,195.628 107.5,195.5C 107.821,175.787 107.488,156.12 106.5,136.5C 91.3322,127.082 75.9988,117.915 60.5,109C 58.9751,107.991 57.3084,107.491 55.5,107.5C 55.8328,123.847 55.4994,140.18 54.5,156.5C 41.4185,163.789 28.5851,171.456 16,179.5C 15.3333,139.167 15.3333,98.8333 16,58.5C 49.1474,38.6812 82.3141,19.0145 115.5,-0.5 Z"/></g>
</svg>
