<?xml version="1.0" encoding="UTF-8"?>
<!DOCTYPE svg PUBLIC "-//W3C//DTD SVG 1.1//EN" "http://www.w3.org/Graphics/SVG/1.1/DTD/svg11.dtd">
<svg xmlns="http://www.w3.org/2000/svg" version="1.1" width="205px" height="204px" style="shape-rendering:geometricPrecision; text-rendering:geometricPrecision; image-rendering:optimizeQuality; fill-rule:evenodd; clip-rule:evenodd" xmlns:xlink="http://www.w3.org/1999/xlink">
<g><path style="opacity:1" fill="#fefffe" d="M 19.5,1.5 C 74.8343,1.33334 130.168,1.50001 185.5,2C 193.333,4.5 198.5,9.66667 201,17.5C 201.667,73.1667 201.667,128.833 201,184.5C 198.393,192.775 192.893,197.941 184.5,200C 128.455,200.983 72.4551,200.65 16.5,199C 10.18,196.014 6.01334,191.181 4,184.5C 3.50006,166.503 3.33339,148.503 3.5,130.5C 10.8409,130.666 18.1742,130.5 25.5,130C 26,129.5 26.5,129 27,128.5C 30.4757,113.758 34.6423,99.258 39.5,85C 42.7907,82.9255 45.9574,83.0922 49,85.5C 53.4679,99.7052 57.4679,114.038 61,128.5C 61.5,129 62,129.5 62.5,130C 70.8822,130.803 79.2155,130.636 87.5,129.5C 97.6746,97.9787 107.008,66.1454 115.5,34C 115.11,31.5409 113.776,29.8743 111.5,29C 105.833,28.3333 100.167,28.3333 94.5,29C 93.5838,29.3742 92.7504,29.8742 92,30.5C 87.3585,45.0642 83.0251,59.7309 79,74.5C 74.8372,78.7475 71.1705,78.4141 68,73.5C 64.3085,59.399 60.3085,45.399 56,31.5C 55.0975,30.2986 53.9308,29.4652 52.5,29C 46.5,28.3333 40.5,28.3333 34.5,29C 32.741,30.008 31.5743,31.508 31,33.5C 27.1304,46.7759 23.4637,60.1092 20,73.5C 16.8295,78.4141 13.1628,78.7475 9,74.5C 7.17804,68.8788 5.51137,63.2121 4,57.5C 3.33333,44.1667 3.33333,30.8333 4,17.5C 6.68502,9.64982 11.8517,4.31649 19.5,1.5 Z M 157.5,125.5 C 160.374,125.623 162.874,126.623 165,128.5C 166.354,132.363 166.854,136.363 166.5,140.5C 152.5,137.833 146.833,143.5 149.5,157.5C 139.295,159.45 134.795,155.45 136,145.5C 136.833,144.667 137.667,143.833 138.5,143C 141.883,142.125 145.216,141.125 148.5,140C 149.701,139.097 150.535,137.931 151,136.5C 150.883,131.225 153.05,127.558 157.5,125.5 Z M 155.5,141.5 C 162.841,141.334 170.174,141.5 177.5,142C 183.302,146.272 183.635,150.939 178.5,156C 169.029,156.137 164.196,160.971 164,170.5C 158.536,173.916 154.203,172.916 151,167.5C 150.333,160.5 150.333,153.5 151,146.5C 152.025,144.313 153.525,142.646 155.5,141.5 Z"/></g>
</svg>
